<svg version="1.1" xmlns="http://www.w3.org/2000/svg" xmlns:xlink="http://www.w3.org/1999/xlink" x="0px" y="0px" width="160px" height="76.872px" viewBox="0 0 160 76.872" style="enable-background:new 0 0 160 76.872;" xml:space="preserve">
    <g>
        <path style="fill:#FFFFFF;" d="M138.038,19.744l-40.587,0.016c-0.807-3.437-3.427-6.862-8.105-8.354V4.621
            C89.346,2.068,87.154,0,84.453,0h-8.907c-2.7,0-4.893,2.068-4.893,4.621v6.785c-4.678,1.492-7.298,4.916-8.105,8.354l-40.587-0.016
            C9.852,19.744,0,29.391,0,41.248v26.498c0,5.033,4.094,9.126,9.127,9.126h141.747c5.032,0,9.127-4.094,9.127-9.126V41.248
            C160,29.391,150.148,19.744,138.038,19.744z"/>
        <path style="fill:#63A70A;" d="M150.971,35.233c-2.321-4.654-7.244-7.872-12.929-7.872h-0.001H96.525h-0.034
            c-0.391,0-0.707,0.317-0.707,0.707c0,0.391,0.316,0.708,0.707,0.708h0.034h41.516c1.56,0,3.056,0.268,4.442,0.758
            c4.949,1.751,8.489,6.341,8.489,11.714v26.498c0,0.028-0.021,0.054-0.047,0.072c-0.015,0.01-0.031,0.022-0.046,0.022H9.13
            c-0.016,0-0.032-0.012-0.047-0.022c-0.026-0.019-0.048-0.044-0.048-0.072V41.248c0-5.373,3.54-9.963,8.489-11.714
            c1.386-0.491,2.882-0.758,4.442-0.758h41.516h0.034c0.391,0,0.707-0.317,0.707-0.708c0-0.391-0.316-0.707-0.707-0.707h-0.034
            H21.966h-0.001c-5.685,0-10.609,3.218-12.928,7.872c-0.908,1.821-1.417,3.862-1.417,6.015v26.498c0,0.832,0.677,1.509,1.509,1.509
            H9.13h141.748l0,0c0.832,0,1.509-0.677,1.509-1.509V41.248C152.387,39.095,151.877,37.054,150.971,35.233z"/>
        <path style="fill:#071C2C;" d="M138.069,22.953h-0.001H99.029h-0.033c-0.61,0-1.103,0.494-1.103,1.104
            c0,0.61,0.494,1.104,1.103,1.104h0.033h39.039c9.123,0,16.519,7.217,16.519,16.088v26.498c0,2.046-1.656,3.71-3.691,3.71h-0.008
            H9.138c-2.046,0-3.71-1.664-3.71-3.71V41.248c0-8.87,7.423-16.088,16.546-16.088H61.01h0.033c0.61,0,1.104-0.494,1.104-1.104
            c0-0.61-0.494-1.104-1.104-1.104H61.01H21.975h-0.001c-9.355,0-18.753,7.357-18.753,18.295c0,25.493,0,25.493,0,26.498
            c0,2.84,2.237,5.918,5.917,5.918h0.001h141.749h0.001h0.007l0,0c3.663,0,5.899-3.078,5.899-5.918c0-1.005,0-1.005,0-26.498
            C156.794,30.31,147.424,22.953,138.069,22.953z"/>
        <g>
            <path style="fill:#A90F3D;" d="M91.872,16.332c-1.61-1.559-4.177-2.274-5.89-2.402v-0.711c0-1.167-0.868-2.113-1.937-2.113h-0.001
                h-0.001c-1.069,0-1.937,0.945-1.937,2.113v0.647L80,13.874l-2.106-0.007v-0.647c0-1.167-0.868-2.113-1.937-2.113h-0.001h-0.001
                c-1.069,0-1.937,0.945-1.937,2.113v0.711c-1.713,0.128-4.279,0.843-5.89,2.402c-1.732,1.527-2.773,4.101-2.732,5.7
                c0.154,6.129,5.041,7.069,5.041,7.069c0.853,0.201,1.68,0.297,2.474,0.311c0.795,0.015,1.557-0.051,2.281-0.174
                c1.917-0.267,3.552-0.87,4.807-1.716H80c1.255,0.845,2.889,1.449,4.807,1.716c0.724,0.123,1.487,0.189,2.281,0.174
                c0.794-0.015,1.621-0.111,2.474-0.311c0,0,4.888-0.94,5.041-7.069C94.645,20.432,93.604,17.859,91.872,16.332z M73.008,25.12
                c-2.049-0.011-3.831-1.149-3.521-3.467c0.287-2.165,2.566-3.256,4.634-3.473c0.02,2.012,0.878,4.368,2.418,6.201
                C76.058,24.718,74.726,25.129,73.008,25.12z M79.996,22.058c-0.485-0.308-2.088-2.675-2.088-4.445
                c0.539-0.085,3.642-0.085,4.182,0C82.09,19.383,80.514,21.755,79.996,22.058z M86.992,25.12c-1.718,0.009-3.05-0.402-3.531-0.739
                c1.54-1.834,2.397-4.189,2.418-6.201c2.068,0.217,4.347,1.308,4.634,3.473C90.823,23.971,89.041,25.109,86.992,25.12z"/>
            <path style="fill:#A90F3D;" d="M80,9.144c3.262,0,5.68,0.607,5.68,0.607l1.077-6.717L82.9,6.444L80,1.462l-2.9,4.982l-3.856-3.41
                l1.077,6.717C74.32,9.751,76.738,9.144,80,9.144L80,9.144z"/>
        </g>
        <g>
            <g>
                <path style="fill:#071C2C;" d="M29.504,50.449c-1.694,0-3.512-0.374-4.957-0.996l0.149-2.864c1.32,0.747,3.238,1.295,4.658,1.295
                    c1.594,0,2.79-0.572,2.79-1.844c0-3.163-7.747-1.295-7.747-7.099c0-2.89,2.117-4.783,5.978-4.783c1.42,0,3.039,0.348,4.011,0.672
                    l-0.126,2.641c-1.171-0.449-2.466-0.773-3.661-0.773c-1.869,0-2.865,0.698-2.865,1.818c0,3.039,7.772,1.271,7.772,7.099
                    C35.506,48.98,32.866,50.449,29.504,50.449z"/>
                <path style="fill:#071C2C;" d="M45.473,42.378c-0.157-1.433-0.747-2.24-1.918-2.24c-1.594,0-2.34,1.618-2.34,3.86
                    c0,2.74,0.996,4.111,3.163,4.111c1.246,0,2.666-0.474,3.711-1.171l-0.125,2.34c-1.02,0.674-2.64,1.146-4.234,1.146
                    c-3.711,0-5.878-2.217-5.878-6.202c0-3.862,2.092-6.327,5.679-6.327c3.769,0,4.9,3.031,4.957,4.483H45.473z"/>
                <path style="fill:#071C2C;" d="M77.182,49.703c-0.548,0.372-1.345,0.647-2.218,0.647c-0.946,0-1.818-0.398-2.142-1.245
                    c-0.798,0.821-1.993,1.32-3.488,1.32c-1.42,0-2.566-0.399-3.313-1.171c-0.772-0.822-1.046-1.868-1.046-3.238v-7.898h3.313v7.374
                    c0,0.797,0.074,1.32,0.397,1.768c0.324,0.423,0.847,0.674,1.57,0.674c0.798,0,1.345-0.324,1.694-0.773
                    c0.398-0.523,0.498-1.196,0.498-2.118v-6.925h3.313v9.292c0,0.523,0.2,0.747,0.598,0.747c0.299,0,0.747-0.174,0.946-0.324
                    L77.182,49.703z"/>
                <path style="fill:#071C2C;" d="M84.617,49.727c-0.473,0.324-1.296,0.623-2.192,0.623c-1.02,0-1.718-0.299-2.117-0.847
                    c-0.324-0.448-0.448-1.145-0.448-1.942l0.017-14.398h3.296v14.248c0,0.523,0.2,0.747,0.598,0.747
                    c0.298,0,0.747-0.174,0.946-0.324L84.617,49.727z"/>
                <path style="fill:#071C2C;" d="M91.843,50.425c-1.519,0-3.163-0.274-4.383-0.822l0.199-2.491c1.046,0.624,2.74,1.047,3.96,1.047
                    c1.296,0,2.043-0.399,2.043-1.196c0-2.117-6.252-0.797-6.252-5.255c0-2.392,2.042-3.811,4.981-3.811
                    c1.145,0,2.516,0.199,3.388,0.523v2.342c-0.847-0.35-1.968-0.622-3.163-0.622c-1.246,0-2.143,0.448-2.143,1.245
                    c0,1.944,6.252,0.847,6.252,5.231C96.725,49.155,94.608,50.425,91.843,50.425z"/>
                <path style="fill:#071C2C;" d="M106.759,49.628c-0.697,0.473-1.893,0.797-3.014,0.797c-1.171,0-2.167-0.374-2.74-0.972
                    c-0.623-0.672-0.847-1.545-0.847-3.113V40.46h-1.893v-2.342h1.893v-2.988l3.313-0.823v3.811h2.79v2.342h-2.79v5.83
                    c0,1.145,0.299,1.768,1.32,1.768c0.698,0,1.471-0.298,2.043-0.647L106.759,49.628z"/>
                <path style="fill:#071C2C;" d="M120.801,49.727c-0.498,0.348-1.32,0.623-2.217,0.623c-1.021,0-1.869-0.423-2.142-1.271
                    c-0.648,0.848-1.918,1.346-3.264,1.346c-2.564,0-4.284-1.42-4.284-4.011c0-2.69,1.893-4.085,4.734-4.085
                    c0.871,0,1.818,0.175,2.441,0.399v-0.324c0-0.797-0.099-1.296-0.473-1.719c-0.374-0.423-1.046-0.648-2.019-0.648
                    c-1.171,0-2.441,0.3-3.612,0.898v-2.242c1.145-0.523,2.64-0.797,4.135-0.797c1.893,0,3.287,0.398,4.21,1.27
                    c0.746,0.698,1.07,1.694,1.07,3.089v5.156c0,0.523,0.174,0.747,0.573,0.747c0.299,0,0.772-0.174,0.971-0.324L120.801,49.727z
                     M116.068,44.521c-0.374-0.15-1.096-0.299-1.72-0.299c-1.444,0-2.117,0.871-2.117,2.042c0,1.32,0.747,2.017,1.893,2.017
                    c0.598,0,1.121-0.224,1.445-0.572c0.323-0.348,0.498-0.872,0.498-1.519V44.521z"/>
                <path style="fill:#071C2C;" d="M135.479,49.703c-0.548,0.372-1.37,0.647-2.242,0.647c-0.946,0-1.843-0.374-2.192-1.295
                    c-0.722,0.847-1.918,1.37-3.289,1.37c-3.089,0-4.982-2.092-4.982-5.729c0-4.085,2.442-6.8,6.576-6.8
                    c0.474,0,0.972,0.05,1.396,0.123v-4.856h3.312v14.248c0,0.523,0.175,0.747,0.573,0.747c0.3,0,0.773-0.174,0.971-0.324
                    L135.479,49.703z M130.746,40.112c-0.274-0.075-0.698-0.125-1.146-0.125c-2.217,0-3.462,1.669-3.462,4.559
                    c0,1.992,0.722,3.487,2.441,3.487c0.747,0,1.345-0.274,1.669-0.698c0.374-0.473,0.498-1.046,0.498-1.893V40.112z"/>
                <path style="fill:#071C2C;" d="M62.384,48.158c-0.399,0-0.599-0.224-0.599-0.747l0.002-5.106c0-1.37-0.274-2.417-1.046-3.238
                    c-0.747-0.773-1.894-1.171-3.313-1.171c-1.396,0-2.441,0.473-3.115,1.121v-5.854h-3.312V50.2h3.312v-6.925
                    c0-0.921,0.101-1.595,0.499-2.118c0.349-0.448,0.897-0.772,1.694-0.772c0.723,0,1.246,0.249,1.57,0.672
                    c0.324,0.449,0.398,0.972,0.398,1.769l-0.001,4.734c0,0.797,0.125,1.494,0.449,1.942c0.398,0.548,1.096,0.847,2.117,0.847
                    c0.897,0,1.719-0.299,2.192-0.623l0.1-1.893C63.131,47.984,62.682,48.158,62.384,48.158z"/>
            </g>
            <g>
                <path style="fill:#071C2C;" d="M26.798,62.925h-2.371v-7.179h2.234c0.824,0,1.422,0.08,1.909,0.374
                    c0.512,0.306,0.761,0.817,0.761,1.395c0,0.794-0.337,1.304-0.999,1.588c0.873,0.204,1.46,0.726,1.46,1.769
                    C29.793,62.392,28.707,62.925,26.798,62.925z M27.833,56.642c-0.3-0.181-0.649-0.227-1.272-0.227h-1.099v2.495h1.111
                    c0.686,0,1.098-0.079,1.385-0.318c0.249-0.215,0.374-0.544,0.374-0.986C28.332,57.243,28.183,56.847,27.833,56.642z
                     M28.32,59.886c-0.374-0.306-0.898-0.363-1.672-0.363h-1.186v2.733h1.161c0.811,0,1.31-0.102,1.634-0.329
                    c0.325-0.227,0.449-0.578,0.449-1.066C28.707,60.442,28.595,60.102,28.32,59.886z"/>
                <path style="fill:#071C2C;" d="M38.016,62.925h-1.049l-0.636-1.656h-3.232l-0.587,1.656h-1.01l2.714-7.179h0.955L38.016,62.925z
                     M36.093,60.623l-1.26-3.278c-0.062-0.147-0.15-0.408-0.175-0.658h-0.013c-0.012,0.249-0.087,0.51-0.137,0.658l-1.173,3.278
                    H36.093z"/>
                <path style="fill:#071C2C;" d="M45.692,62.812c-0.15,0.091-0.387,0.17-0.674,0.17c-0.512,0-0.811-0.193-1.173-0.76l-1.609-2.529
                    h-1.223v3.232h-1.036v-7.179h1.036v3.221h1.248l1.922-3.221h1.023l-2.122,3.539l1.71,2.688c0.175,0.272,0.3,0.352,0.499,0.352
                    c0.163,0,0.324-0.045,0.437-0.114L45.692,62.812z"/>
                <path style="fill:#071C2C;" d="M52.326,62.256l-0.1,0.669H47.56v-7.179h4.492v0.669h-3.456v2.54h2.795v0.646h-2.795v2.654H52.326
                    z"/>
                <path style="fill:#071C2C;" d="M60.47,62.8c-0.162,0.091-0.424,0.182-0.699,0.182c-0.599,0-0.848-0.249-1.148-0.737l-1.298-2.132
                    h-1.485v2.813h-1.036v-7.179h2.309c1.06,0,1.746,0.17,2.246,0.522c0.499,0.352,0.761,0.884,0.761,1.565
                    c0,1.145-0.599,1.882-1.76,2.155l1.223,2.007c0.149,0.25,0.262,0.329,0.449,0.329c0.15,0,0.337-0.045,0.474-0.125L60.47,62.8z
                     M58.648,56.801c-0.337-0.283-0.873-0.385-1.635-0.385h-1.173v3.05h1.36c1.36,0,1.872-0.624,1.872-1.576
                    C59.073,57.391,58.923,57.04,58.648,56.801z"/>
                <path style="fill:#071C2C;" d="M67.785,55.746l-2.521,4.672v2.507h-1.035v-2.529l-2.533-4.65h1.097l1.735,3.198
                    c0.15,0.272,0.262,0.545,0.287,0.726h0.012c0.025-0.181,0.137-0.419,0.275-0.692l1.71-3.232H67.785z"/>
                <path style="fill:#071C2C;" d="M75.25,63.027c-0.761,0-1.522-0.147-2.134-0.385l0.037-0.771c0.624,0.306,1.373,0.476,2.084,0.476
                    c1.098,0,1.759-0.442,1.759-1.213c0-1.894-3.918-1.055-3.918-3.572c0-0.556,0.225-0.987,0.586-1.304
                    c0.499-0.431,1.223-0.612,2.084-0.612c0.549,0,1.21,0.113,1.697,0.261l-0.038,0.715c-0.511-0.17-1.123-0.295-1.709-0.295
                    c-1.073,0-1.672,0.431-1.672,1.134c0,1.849,3.918,0.998,3.918,3.595C77.945,62.495,76.672,63.027,75.25,63.027z"/>
                <path style="fill:#071C2C;" d="M82.941,63.027c-1.996,0-3.132-1.361-3.132-3.697c0-2.336,1.135-3.686,3.132-3.686
                    c1.984,0,3.132,1.349,3.132,3.686C86.073,61.666,84.925,63.027,82.941,63.027z M82.941,56.347c-1.311,0-2.046,0.896-2.046,2.983
                    c0,2.087,0.736,2.994,2.046,2.994c1.31,0,2.047-0.907,2.047-2.994C84.987,57.243,84.251,56.347,82.941,56.347z"/>
                <path style="fill:#071C2C;" d="M92.835,62.256l-0.1,0.669h-4.455v-7.179h1.035v6.51H92.835z"/>
                <path style="fill:#071C2C;" d="M100.159,60.317c0,0.839-0.125,1.384-0.487,1.849c-0.437,0.567-1.198,0.862-2.346,0.862
                    c-0.973,0-1.685-0.216-2.146-0.681c-0.449-0.442-0.624-1.02-0.624-1.939v-4.661h1.036v4.57c0,0.76,0.1,1.18,0.337,1.497
                    c0.275,0.363,0.786,0.533,1.422,0.533c0.686,0,1.16-0.181,1.435-0.533c0.274-0.34,0.349-0.828,0.349-1.52v-4.548h1.023V60.317z"
                    />
                <path style="fill:#071C2C;" d="M107.78,56.416h-2.309v6.51h-1.036v-6.51h-2.309v-0.669h5.653V56.416z"/>
                <path style="fill:#071C2C;" d="M111.522,62.925h-1.067l0.005-7.179h1.062V62.925z"/>
                <path style="fill:#071C2C;" d="M117.314,63.027c-1.997,0-3.132-1.361-3.132-3.697c0-2.336,1.136-3.686,3.132-3.686
                    c1.984,0,3.132,1.349,3.132,3.686C120.446,61.666,119.298,63.027,117.314,63.027z M117.314,56.347
                    c-1.31,0-2.047,0.896-2.047,2.983c0,2.087,0.736,2.994,2.047,2.994c1.31,0,2.046-0.907,2.046-2.994
                    C119.361,57.243,118.624,56.347,117.314,56.347z"/>
                <path style="fill:#071C2C;" d="M128.512,62.925h-0.736l-3.744-4.979c-0.162-0.216-0.349-0.499-0.424-0.726v5.704h-0.898v-7.179
                    h0.736l3.732,4.945c0.199,0.261,0.362,0.533,0.437,0.726v-5.671h0.898V62.925z"/>
                <path style="fill:#071C2C;" d="M132.878,63.027c-0.761,0-1.522-0.147-2.134-0.385l0.037-0.771
                    c0.624,0.306,1.373,0.476,2.084,0.476c1.099,0,1.759-0.442,1.759-1.213c0-1.894-3.918-1.055-3.918-3.572
                    c0-0.556,0.224-0.987,0.587-1.304c0.499-0.431,1.223-0.612,2.084-0.612c0.55,0,1.21,0.113,1.697,0.261l-0.037,0.715
                    c-0.511-0.17-1.123-0.295-1.71-0.295c-1.073,0-1.672,0.431-1.672,1.134c0,1.849,3.918,0.998,3.918,3.595
                    C135.573,62.495,134.3,63.027,132.878,63.027z"/>
            </g>
        </g>
    </g>
</svg>